<svg width="50" height="50" viewBox="0 0 50 50" fill="none" xmlns="http://www.w3.org/2000/svg">
<g clip-path="url(#clip0_166_70)">
<path fill-rule="evenodd" clip-rule="evenodd" d="M30.7969 23.6826C30.29 22.5107 29.7617 21.3408 29.1982 20.1836C34.0098 18.0996 37.877 15.2695 40.7578 11.6807C43.5684 15.002 45.333 19.2197 45.5928 23.8359C40.2285 22.958 35.2949 22.9092 30.7969 23.6826ZM36.4629 42.166C35.5508 37.2656 34.2119 32.4736 32.4639 27.7988C36.3711 27.2461 40.6729 27.3896 45.377 28.208C44.4668 34.0117 41.1543 39.0254 36.4629 42.166ZM12.3262 41.2715C16.4277 34.8369 21.665 30.6484 28.1543 28.7148C30.085 33.7578 31.5068 38.9434 32.4111 44.2559C25.6514 46.8682 18.0557 45.7461 12.3262 41.2715ZM4.37598 24.4678C12.3926 24.4561 19.3086 23.5352 25.1035 21.7119C25.5889 22.7012 26.0537 23.6953 26.498 24.6963C19.46 26.8955 13.6582 31.4063 9.13184 38.1963C5.87402 34.2861 4.25195 29.5439 4.37598 24.4678ZM15.6826 6.59375C18.457 10.2236 20.9131 13.9658 23.0508 17.8057C17.9873 19.2959 11.9453 20.0615 4.95801 20.1094C6.40137 14.2031 10.3779 9.29102 15.6826 6.59375ZM37.5898 8.66602C35.0801 11.9023 31.6152 14.4619 27.2002 16.3311C25.085 12.4551 22.667 8.67383 19.9355 5.00391C26.1191 3.42676 32.5156 4.74707 37.5898 8.66602ZM25 0C11.1934 0 0 11.1934 0 25C0 38.8066 11.1934 50 25 50C38.8076 50 50 38.8066 50 25C50 11.1934 38.8066 0 25 0Z" fill="white"/>
</g>
<defs>
<clipPath id="clip0_166_70">
<rect width="50" height="50" fill="white"/>
</clipPath>
</defs>
</svg>
