<svg width="48" height="50" viewBox="0 0 48 50" fill="none" xmlns="http://www.w3.org/2000/svg">
<g clip-path="url(#clip0_166_99)">
<path d="M3.01725 2.1526L30.7669 0.113421C34.1754 -0.177624 35.0512 0.0186445 37.1944 1.56883L46.0524 7.77816C47.5136 8.84588 48 9.13712 48 10.2998V44.3533C48 46.4875 47.2209 47.7498 44.4945 47.9429L12.27 49.8839C10.2238 49.9804 9.24938 49.6894 8.17781 48.3304L1.65488 39.8907C0.484875 38.3371 0 37.1742 0 35.8153V5.54588C0 3.80111 0.779062 2.3457 3.01725 2.1526Z" fill="white"/>
<path d="M30.7669 0.113421L3.01725 2.1526C0.779062 2.3457 0 3.80111 0 5.54588V35.8155C0 37.1744 0.484688 38.3371 1.65488 39.8907L8.17781 48.3304C9.24938 49.6894 10.2238 49.9804 12.27 49.8839L44.4945 47.9429C47.2193 47.7498 48 46.4875 48 44.3533V10.2998C48 9.197 47.562 8.87928 46.2731 7.93786L46.0509 7.77816L37.1944 1.56883C35.0512 0.0186445 34.1756 -0.177624 30.7669 0.113421ZM12.9988 9.74253C10.3676 9.91883 9.77081 9.95876 8.27644 8.74943L4.47675 5.74215C4.0905 5.35297 4.28437 4.86715 5.25731 4.7707L31.9337 2.83133C34.1738 2.63674 35.3406 3.41342 36.2166 4.09215L40.7917 7.39066C40.9873 7.48861 41.4739 8.0692 40.8887 8.0692L13.3399 9.7192L12.9988 9.74253ZM9.93131 44.0623V15.1533C9.93131 13.8908 10.3207 13.3088 11.4876 13.2106L43.1288 11.3675C44.202 11.2711 44.6869 11.9496 44.6869 13.2106V41.9265C44.6869 43.189 44.4911 44.2567 42.7393 44.3533L12.4605 46.0998C10.7087 46.1963 9.93131 45.6158 9.93131 44.0623ZM39.8207 16.7033C40.0146 17.5767 39.8207 18.45 38.943 18.5498L37.4837 18.8375V40.1815C36.2166 40.8601 35.0498 41.2478 34.0749 41.2478C32.5172 41.2478 32.1276 40.7619 30.9607 39.3082L21.4174 24.3681V38.8226L24.4361 39.5028C24.4361 39.5028 24.4361 41.2494 22.0007 41.2494L15.2856 41.6369C15.09 41.2478 15.2856 40.278 15.9662 40.0851L17.7195 39.6009V20.4894L15.2858 20.2931C15.09 19.42 15.5764 18.1589 16.9406 18.0608L24.1455 17.5785L34.0751 32.7116V19.3235L31.5442 19.0339C31.3487 17.9644 32.1276 17.1877 33.1005 17.0929L39.8207 16.7033Z" fill="black"/>
</g>
<defs>
<clipPath id="clip0_166_99">
<rect width="48" height="50" fill="white"/>
</clipPath>
</defs>
</svg>
