<svg width="50" height="50" viewBox="0 0 50 50" fill="none" xmlns="http://www.w3.org/2000/svg">
<g clip-path="url(#clip0_166_36)">
<path d="M4.54639 37.5414L4.54756 46.8188C4.54756 47.2366 4.62986 47.6503 4.78975 48.0363C4.94965 48.4222 5.18402 48.773 5.47946 49.0684C5.77491 49.3638 6.12566 49.5981 6.51167 49.758C6.89768 49.9178 7.3114 50.0001 7.7292 50H16.7187C17.1776 49.9999 17.6312 49.9006 18.0482 49.7089C18.4652 49.5171 18.8358 49.2375 19.1347 48.8891L44.6882 19.0766C45.1821 18.4998 45.4537 17.7656 45.4538 17.0062V7.72891C45.4539 7.31109 45.3716 6.89735 45.2118 6.51132C45.0519 6.12528 44.8176 5.77451 44.5222 5.47903C44.2268 5.18355 43.8761 4.94915 43.4901 4.78921C43.1041 4.62927 42.6904 4.54693 42.2726 4.54688H33.2812C32.8222 4.54694 32.3686 4.64626 31.9516 4.83801C31.5346 5.02976 31.164 5.30942 30.8651 5.65781L5.3124 35.4703C4.81829 36.0472 4.54674 36.7818 4.54678 37.5414H4.54639Z" fill="#F0EB18"/>
<path d="M4.54688 38.6558V46.8181C4.54688 48.5742 5.97168 49.999 7.72775 49.999H17.9561C18.1081 49.999 18.2583 49.9883 18.4067 49.9669L47.2679 45.8457C48.0267 45.7375 48.7209 45.3591 49.2229 44.7799C49.7248 44.2007 50.0008 43.4597 50 42.6933V30.4507C50 28.6928 48.5752 27.268 46.8173 27.2698L32.3342 27.2733C31.9922 27.2733 31.652 27.3268 31.3279 27.4354L6.72149 35.6387C6.0886 35.8509 5.53829 36.2564 5.14814 36.798C4.75798 37.3396 4.54768 37.9883 4.54688 38.6558Z" fill="url(#paint0_linear_166_36)"/>
<path d="M0.00146534 3.18161V29.7186C0.00146534 30.9903 0.760175 32.1408 1.92852 32.643L31.2172 45.1956C31.6126 45.3648 32.04 45.4521 32.471 45.4521H46.817C48.5749 45.4521 49.9997 44.0272 49.9997 42.2712V28.2368C49.9997 27.6064 49.8127 26.9919 49.4636 26.4701L32.7435 1.41664C32.4525 0.981481 32.0589 0.624674 31.5973 0.377732C31.1357 0.130791 30.6204 0.00131125 30.0969 0.000732921H3.18235C2.76456 0.000498802 2.35083 0.0826177 1.9648 0.242389C1.57877 0.40216 1.22802 0.636453 0.932601 0.931872C0.637183 1.22729 0.40289 1.57804 0.243119 1.96406C0.0833473 2.35009 0.00123122 2.76383 0.00146534 3.18161Z" fill="url(#paint1_linear_166_36)"/>
<path d="M40.6243 9.37451H9.37549V40.6233H40.6243V9.37451Z" fill="black"/>
<path d="M16.592 21.8437L14.6998 13.2866H12.3311L15.1607 25.0085H17.7564L19.7572 16.4933L21.7334 25.0085H24.3369L27.1838 13.2866H24.8646L23.0307 21.8437L20.9209 13.2866H18.61L16.592 21.8437ZM29.8607 24.7491C30.5193 25.0562 31.2729 25.2098 32.1213 25.2101C32.9702 25.2101 33.724 25.0535 34.3826 24.7405C35.041 24.428 35.5516 23.9983 35.9147 23.4515C36.2831 22.8983 36.4674 22.2758 36.4674 21.5839C36.4674 21.0196 36.3417 20.5004 36.0904 20.0265C35.84 19.5462 35.4784 19.1328 35.0357 18.8206C34.5891 18.4912 34.0783 18.268 33.5033 18.1511L31.5104 17.7155C31.1476 17.627 30.8601 17.4763 30.6479 17.2636C30.4413 17.0508 30.3381 16.7828 30.3381 16.4597C30.3381 16.1753 30.4135 15.927 30.5643 15.7147C30.715 15.4968 30.9243 15.3293 31.192 15.2124C31.4654 15.0897 31.7808 15.0283 32.1381 15.028C32.4949 15.028 32.8102 15.0921 33.0842 15.2202C33.3631 15.3429 33.5779 15.5187 33.7287 15.7476C33.8792 15.9707 33.9545 16.2249 33.9545 16.5101H36.2404C36.2347 15.8405 36.0561 15.2489 35.7045 14.7351C35.3581 14.2153 34.8725 13.8106 34.2475 13.521C33.6225 13.2308 32.8998 13.0854 32.1123 13.0854C31.3253 13.0854 30.6221 13.2361 30.0025 13.5374C29.3833 13.8332 28.9005 14.249 28.5541 14.7847C28.2083 15.3154 28.0354 15.9154 28.0354 16.5847C28.0354 17.1375 28.1497 17.6344 28.3783 18.0753C28.6077 18.5167 28.9375 18.8982 29.3412 19.189C29.7545 19.4851 30.2402 19.6944 30.7982 19.8171L32.8666 20.2776C33.263 20.3729 33.5727 20.5433 33.7959 20.7886C34.0245 21.0344 34.1389 21.3443 34.1389 21.7183C34.1428 22.006 34.0548 22.2875 33.8877 22.5218C33.726 22.7562 33.4945 22.9404 33.1932 23.0745C32.8971 23.2034 32.5678 23.2667 32.1545 23.2667C31.7415 23.2667 31.376 23.1942 31.058 23.0491C30.74 22.9038 30.4916 22.7029 30.3127 22.4464C30.1343 22.1896 30.0451 21.891 30.0451 21.5507H27.751C27.7619 22.2707 27.9516 22.9071 28.3201 23.4597C28.6941 24.0123 29.2076 24.4421 29.8607 24.7491ZM13.276 34.3733H25.776V36.7171H13.276V34.3733Z" fill="white"/>
<line x1="20.5" y1="29" x2="20.5" y2="27" stroke="white"/>
</g>
<defs>
<linearGradient id="paint0_linear_166_36" x1="5.95543" y1="50.5588" x2="47.85" y2="31.1353" gradientUnits="userSpaceOnUse">
<stop offset="0.22" stop-color="#F0EB18"/>
<stop offset="0.59" stop-color="#00C4F4"/>
</linearGradient>
<linearGradient id="paint1_linear_166_36" x1="46.8896" y1="46.6988" x2="1.02721" y2="0.837202" gradientUnits="userSpaceOnUse">
<stop offset="0.19" stop-color="#00C4F4"/>
<stop offset="0.83" stop-color="#007DFE"/>
</linearGradient>
<clipPath id="clip0_166_36">
<rect width="50" height="50" fill="white"/>
</clipPath>
</defs>
</svg>
